# xmcd CD database file
#
# Track frame offsets:
#	150
#	1361
#	21631
#	33733
#	49877
#	63983
#	80034
#	99028
#	116989
#	135870
#	148780
#	170495
#	186180
#	202787
#	220370
#	231691
#	257254
#
# Disc length: 3815 seconds
#
# Revision: 0
# Processed by: cddbd v1.5.2PL0 Copyright (c) Steve Scherf et al.
# Submitted via: Feurio! 1.68 - http://www.feurio.com
#
DISCID=f50ee511
DTITLE=Various Artist - Super Sweat - 2007/I
DYEAR=2007
DGENRE=Aerobic - Tae Bo
TTITLE0=Move Ya! - Intro
TTITLE1=Starzoom - Billie Jean
TTITLE2=The Real Booty Babes - 4 Ever
TTITLE3=Central 7 - If I Were You
TTITLE4=Topmodelz - Your Love
TTITLE5=Caramel Club - Mamma Say Mamma Say
TTITLE6=Roxfield - Freak Out
TTITLE7=Kim Leoni - Again
TTITLE8=Apollo Brothers - One Of Us
TTITLE9=Jeckyll and Hyde - Frozen Flame
TTITLE10=O'Heller - Slice Me
TTITLE11=Cascada - One More Night
TTITLE12=Klubbhoppers - Rain Again
TTITLE13=Antares - Ride On A Meteorite
TTITLE14=Kim Sozzi - Break Up
TTITLE15=The Deflorists - Nubian Queen
TTITLE16=Midnight Cocktail - Cocmic Layer
EXTD=Spring 2007\r\nCardio: 51:11\r\n142 - 148 BPM
EXTT0=
EXTT1=142
EXTT2=142
EXTT3=143
EXTT4=143
EXTT5=143
EXTT6=144
EXTT7=144
EXTT8=145
EXTT9=145
EXTT10=146
EXTT11=146
EXTT12=147
EXTT13=147
EXTT14=148
EXTT15=115
EXTT16=80
PLAYORDER=
